# xmcd
#
# Track frame offsets:
#	150
#	19275
#	44265
#	70195
#	89593
#	100258
#	119615
#	143217
#	179273
#	199781
#	215829
#	236734
#
# Disc length: 3382 seconds
#
# Revision: 1
# Processed by: cddbd v1.5.1PL0 Copyright (c) Steve Scherf et al.
# Submitted via: EasyCDDAExtractor 7.0.0.1
#
DISCID=b70d340c
DTITLE=Linda Hornbuckle - Clearly
DYEAR=2004
DGENRE=R&B
TTITLE0=I've Got A Secret
TTITLE1=I Can See Clearly Now
TTITLE2=All Day Love
TTITLE3=Changing Times
TTITLE4=Interlude
TTITLE5=This Time
TTITLE6=Choice of Colors
TTITLE7=Steal Away
TTITLE8=Back on the Outside
TTITLE9=Road to Heaven
TTITLE10=A Mother's Prayer
TTITLE11=Jimmy's Jam
EXTD=
EXTT0=
EXTT1=
EXTT2=
EXTT3=
EXTT4=
EXTT5=
EXTT6=
EXTT7=
EXTT8=
EXTT9=
EXTT10=
EXTT11=
PLAYORDER=
